{
  "accessors": [
    {
      "bufferView": 2,
      "componentType": 5126,
      "count": 258,
      "max": [
        0.7515155673027039,
        4.530831336975098,
        1.2979251146316528
      ],
      "min": [
        -2.014028549194336,
        1.835240125656128,
        -1.3007597923278809
      ],
      "type": "VEC3"
    },
    {
      "bufferView": 2,
      "byteOffset": 3096,
      "componentType": 5126,
      "count": 258,
      "max": [
        0.9998000860214233,
        0.9975830316543579,
        1.0
      ],
      "min": [
        -0.9971239566802979,
        -0.9962750673294067,
        -1.0
      ],
      "type": "VEC3"
    },
    {
      "bufferView": 1,
      "componentType": 5126,
      "count": 258,
      "max": [
        0.875,
        1.0
      ],
      "min": [
        0.0,
        0.0
      ],
      "type": "VEC2"
    },
    {
      "bufferView": 0,
      "componentType": 5125,
      "count": 600,
      "type": "SCALAR"
    },
    {
      "bufferView": 2,
      "byteOffset": 6192,
      "componentType": 5126,
      "count": 5290,
      "max": [
        2.3396379947662354,
        4.869808673858643,
        2.207002639770508
      ],
      "min": [
        -1.9895762205123901,
        0.2775735855102539,
        -2.1505751609802246
      ],
      "type": "VEC3"
    },
    {
      "bufferView": 2,
      "byteOffset": 69672,
      "componentType": 5126,
      "count": 5290,
      "max": [
        1.0,
        1.0,
        1.0
      ],
      "min": [
        -1.0,
        -1.0,
        -1.0
      ],
      "type": "VEC3"
    },
    {
      "bufferView": 1,
      "byteOffset": 2064,
      "componentType": 5126,
      "count": 5290,
      "max": [
        1.0000001192092896,
        1.0
      ],
      "min": [
        0.0,
        -7.450580596923828e-08
      ],
      "type": "VEC2"
    },
    {
      "bufferView": 0,
      "byteOffset": 2400,
      "componentType": 5125,
      "count": 15867,
      "type": "SCALAR"
    },
    {
      "bufferView": 2,
      "byteOffset": 133152,
      "componentType": 5126,
      "count": 228,
      "max": [
        2.5052778720855713,
        4.375530242919922,
        2.3207833766937256
      ],
      "min": [
        -2.197944402694702,
        -0.025858938694000244,
        -2.2590889930725098
      ],
      "type": "VEC3"
    },
    {
      "bufferView": 2,
      "byteOffset": 135888,
      "componentType": 5126,
      "count": 228,
      "max": [
        0.9995364546775818,
        0.9922329783439636,
        0.9944315552711487
      ],
      "min": [
        -0.9999836683273315,
        -0.9949374794960022,
        -0.9951286315917969
      ],
      "type": "VEC3"
    },
    {
      "bufferView": 1,
      "byteOffset": 44384,
      "componentType": 5126,
      "count": 228,
      "max": [
        0.875,
        1.0
      ],
      "min": [
        0.125,
        0.0
      ],
      "type": "VEC2"
    },
    {
      "bufferView": 0,
      "byteOffset": 65868,
      "componentType": 5125,
      "count": 456,
      "type": "SCALAR"
    },
    {
      "bufferView": 2,
      "byteOffset": 138624,
      "componentType": 5126,
      "count": 571,
      "max": [
        1.886534333229065,
        3.138448715209961,
        0.6980012655258179
      ],
      "min": [
        -0.35488441586494446,
        1.7293435335159302,
        -0.6976696848869324
      ],
      "type": "VEC3"
    },
    {
      "bufferView": 2,
      "byteOffset": 145476,
      "componentType": 5126,
      "count": 571,
      "max": [
        1.0,
        1.0,
        1.0
      ],
      "min": [
        -1.0,
        -1.0,
        -1.0
      ],
      "type": "VEC3"
    },
    {
      "bufferView": 1,
      "byteOffset": 46208,
      "componentType": 5126,
      "count": 571,
      "max": [
        0.875,
        1.0
      ],
      "min": [
        0.125,
        -7.450580596923828e-08
      ],
      "type": "VEC2"
    },
    {
      "bufferView": 0,
      "byteOffset": 67692,
      "componentType": 5125,
      "count": 1020,
      "type": "SCALAR"
    },
    {
      "bufferView": 2,
      "byteOffset": 152328,
      "componentType": 5126,
      "count": 2030,
      "max": [
        2.578063488006592,
        5.266547679901123,
        2.3239104747772217
      ],
      "min": [
        -2.2074341773986816,
        -0.012301743030548096,
        -2.272261142730713
      ],
      "type": "VEC3"
    },
    {
      "bufferView": 2,
      "byteOffset": 176688,
      "componentType": 5126,
      "count": 2030,
      "max": [
        0.9997773766517639,
        0.9885494709014893,
        0.9979153275489807
      ],
      "min": [
        -0.9992518424987793,
        -1.0,
        -0.9979152679443359
      ],
      "type": "VEC3"
    },
    {
      "bufferView": 1,
      "byteOffset": 50776,
      "componentType": 5126,
      "count": 2030,
      "max": [
        0.9784014821052551,
        1.0016902685165405
      ],
      "min": [
        0.24999789893627167,
        0.0
      ],
      "type": "VEC2"
    },
    {
      "bufferView": 0,
      "byteOffset": 71772,
      "componentType": 5125,
      "count": 7695,
      "type": "SCALAR"
    },
    {
      "bufferView": 2,
      "byteOffset": 201048,
      "componentType": 5126,
      "count": 120,
      "max": [
        2.5676839351654053,
        3.6442747116088867,
        0.6662348508834839
      ],
      "min": [
        2.303086280822754,
        2.7302846908569336,
        -0.6661590933799744
      ],
      "type": "VEC3"
    },
    {
      "bufferView": 2,
      "byteOffset": 202488,
      "componentType": 5126,
      "count": 120,
      "max": [
        0.8533295392990112,
        0.9853385090827942,
        0.8653174042701721
      ],
      "min": [
        -0.8533297777175903,
        -0.9853401184082031,
        -0.8653146624565125
      ],
      "type": "VEC3"
    },
    {
      "bufferView": 1,
      "byteOffset": 67016,
      "componentType": 5126,
      "count": 120,
      "max": [
        0.65625,
        0.9960824847221375
      ],
      "min": [
        0.34375,
        0.0039175450801849365
      ],
      "type": "VEC2"
    },
    {
      "bufferView": 0,
      "byteOffset": 102552,
      "componentType": 5125,
      "count": 336,
      "type": "SCALAR"
    },
    {
      "bufferView": 2,
      "byteOffset": 203928,
      "componentType": 5126,
      "count": 514,
      "max": [
        2.640277147293091,
        5.3123860359191895,
        1.100000023841858
      ],
      "min": [
        0.4088406562805176,
        2.194469928741455,
        -1.100000023841858
      ],
      "type": "VEC3"
    },
    {
      "bufferView": 2,
      "byteOffset": 210096,
      "componentType": 5126,
      "count": 514,
      "max": [
        0.9978204965591431,
        0.9458085894584656,
        1.0
      ],
      "min": [
        -0.9992518424987793,
        -0.9558746218681335,
        -1.0
      ],
      "type": "VEC3"
    },
    {
      "bufferView": 1,
      "byteOffset": 67976,
      "componentType": 5126,
      "count": 514,
      "max": [
        0.980079174041748,
        1.0016752481460571
      ],
      "min": [
        0.24999970197677612,
        0.0
      ],
      "type": "VEC2"
    },
    {
      "bufferView": 0,
      "byteOffset": 103896,
      "componentType": 5125,
      "count": 2142,
      "type": "SCALAR"
    }
  ],
  "asset": {
    "extras": {
      "author": "Ole Gunnar Isager (https://sketchfab.com/FrenchBaguette)",
      "license": "CC-BY-4.0 (http://creativecommons.org/licenses/by/4.0/)",
      "source": "https://sketchfab.com/3d-models/robot-cln-r-school-project-9a793a9293fb4ec89936aebfda8fc434",
      "title": "Robot CLN-R (School Project)"
    },
    "generator": "Sketchfab-12.63.0",
    "version": "2.0"
  },
  "bufferViews": [
    {
      "buffer": 0,
      "byteLength": 112464,
      "name": "floatBufferViews",
      "target": 34963
    },
    {
      "buffer": 0,
      "byteLength": 72088,
      "byteOffset": 112464,
      "byteStride": 8,
      "name": "floatBufferViews",
      "target": 34962
    },
    {
      "buffer": 0,
      "byteLength": 216264,
      "byteOffset": 184552,
      "byteStride": 12,
      "name": "floatBufferViews",
      "target": 34962
    }
  ],
  "buffers": [
    {
      "byteLength": 400816,
      "uri": "scene.bin"
    }
  ],
  "materials": [
    {
      "doubleSided": true,
      "emissiveFactor": [
        0.267234,
        0.694805,
        0.0
      ],
      "name": "lambert4",
      "pbrMetallicRoughness": {
        "baseColorFactor": [
          0.538467,
          1.0,
          0.0,
          1.0
        ],
        "metallicFactor": 0.0,
        "roughnessFactor": 0.6
      }
    },
    {
      "doubleSided": true,
      "name": "MetalShiny",
      "pbrMetallicRoughness": {
        "baseColorFactor": [
          0.2806968849,
          0.2806968849,
          0.2806968849,
          1.0
        ],
        "roughnessFactor": 0.263910061
      }
    },
    {
      "doubleSided": true,
      "name": "Rubber",
      "pbrMetallicRoughness": {
        "baseColorFactor": [
          0.0714984773,
          0.0714984773,
          0.0714984773,
          1.0
        ],
        "metallicFactor": 0.0
      }
    },
    {
      "doubleSided": true,
      "name": "Metal",
      "pbrMetallicRoughness": {
        "baseColorFactor": [
          0.1410743112,
          0.1410743112,
          0.1410743112,
          1.0
        ],
        "roughnessFactor": 0.520007622
      }
    },
    {
      "doubleSided": true,
      "name": "lambert1",
      "pbrMetallicRoughness": {
        "baseColorFactor": [
          0.974026,
          0.974026,
          0.974026,
          1.0
        ],
        "metallicFactor": 0.1724466463,
        "roughnessFactor": 0.7883003049
      }
    },
    {
      "doubleSided": true,
      "emissiveFactor": [
        1.0,
        1.0,
        1.0
      ],
      "name": "pasted__Eyes",
      "pbrMetallicRoughness": {
        "metallicFactor": 0.0,
        "roughnessFactor": 0.6
      }
    },
    {
      "doubleSided": true,
      "name": "BlackGlass",
      "pbrMetallicRoughness": {
        "baseColorFactor": [
          0.005097615,
          0.005097615,
          0.005097615,
          1.0
        ],
        "metallicFactor": 0.9102515244,
        "roughnessFactor": 0.0
      }
    }
  ],
  "meshes": [
    {
      "name": "pCube43_lambert4_0",
      "primitives": [
        {
          "attributes": {
            "NORMAL": 1,
            "POSITION": 0,
            "TEXCOORD_0": 2
          },
          "indices": 3,
          "material": 0,
          "mode": 4
        }
      ]
    },
    {
      "name": "pCube43_MetalShiny_0",
      "primitives": [
        {
          "attributes": {
            "NORMAL": 5,
            "POSITION": 4,
            "TEXCOORD_0": 6
          },
          "indices": 7,
          "material": 1,
          "mode": 4
        }
      ]
    },
    {
      "name": "pCube43_Rubber_0",
      "primitives": [
        {
          "attributes": {
            "NORMAL": 9,
            "POSITION": 8,
            "TEXCOORD_0": 10
          },
          "indices": 11,
          "material": 2,
          "mode": 4
        }
      ]
    },
    {
      "name": "pCube43_Metal_0",
      "primitives": [
        {
          "attributes": {
            "NORMAL": 13,
            "POSITION": 12,
            "TEXCOORD_0": 14
          },
          "indices": 15,
          "material": 3,
          "mode": 4
        }
      ]
    },
    {
      "name": "pCube43_lambert1_0",
      "primitives": [
        {
          "attributes": {
            "NORMAL": 17,
            "POSITION": 16,
            "TEXCOORD_0": 18
          },
          "indices": 19,
          "material": 4,
          "mode": 4
        }
      ]
    },
    {
      "name": "pCube43_pasted__Eyes_0",
      "primitives": [
        {
          "attributes": {
            "NORMAL": 21,
            "POSITION": 20,
            "TEXCOORD_0": 22
          },
          "indices": 23,
          "material": 5,
          "mode": 4
        }
      ]
    },
    {
      "name": "pCube43_BlackGlass_0",
      "primitives": [
        {
          "attributes": {
            "NORMAL": 25,
            "POSITION": 24,
            "TEXCOORD_0": 26
          },
          "indices": 27,
          "material": 6,
          "mode": 4
        }
      ]
    }
  ],
  "nodes": [
    {
      "children": [
        1
      ],
      "matrix": [
        1.0,
        0.0,
        0.0,
        0.0,
        0.0,
        2.220446049250313e-16,
        -1.0,
        0.0,
        0.0,
        1.0,
        2.220446049250313e-16,
        0.0,
        0.0,
        0.0,
        0.0,
        1.0
      ],
      "name": "Sketchfab_model"
    },
    {
      "children": [
        2
      ],
      "matrix": [
        1.0,
        0.0,
        0.0,
        0.0,
        0.0,
        0.0,
        1.0,
        0.0,
        0.0,
        -1.0,
        0.0,
        0.0,
        0.0,
        0.0,
        0.0,
        1.0
      ],
      "name": "ac719cafb0544a67956c0e4760f02021.fbx"
    },
    {
      "children": [
        3
      ],
      "name": "RootNode"
    },
    {
      "children": [
        4,
        5,
        6,
        7,
        8,
        9,
        10
      ],
      "name": "pCube43"
    },
    {
      "mesh": 0,
      "name": "pCube43_lambert4_0"
    },
    {
      "mesh": 1,
      "name": "pCube43_MetalShiny_0"
    },
    {
      "mesh": 2,
      "name": "pCube43_Rubber_0"
    },
    {
      "mesh": 3,
      "name": "pCube43_Metal_0"
    },
    {
      "mesh": 4,
      "name": "pCube43_lambert1_0"
    },
    {
      "mesh": 5,
      "name": "pCube43_pasted__Eyes_0"
    },
    {
      "mesh": 6,
      "name": "pCube43_BlackGlass_0"
    }
  ],
  "scene": 0,
  "scenes": [
    {
      "name": "Sketchfab_Scene",
      "nodes": [
        0
      ]
    }
  ]
}
