{
  "accessors": [
    {
      "bufferView": 2,
      "componentType": 5126,
      "count": 48,
      "max": [
        99.0075454711914,
        210.56301879882813,
        131.1536865234375
      ],
      "min": [
        -99.0075454711914,
        164.71652221679688,
        -10.23603343963623
      ],
      "type": "VEC3"
    },
    {
      "bufferView": 2,
      "byteOffset": 576,
      "componentType": 5126,
      "count": 48,
      "max": [
        0.8381558656692505,
        0.9798828363418579,
        0.24728257954120636
      ],
      "min": [
        -0.8381558656692505,
        0.5451352596282959,
        -0.049844108521938324
      ],
      "type": "VEC3"
    },
    {
      "bufferView": 1,
      "componentType": 5126,
      "count": 48,
      "max": [
        0.0,
        0.0
      ],
      "min": [
        0.0,
        0.0
      ],
      "type": "VEC2"
    },
    {
      "bufferView": 0,
      "componentType": 5125,
      "count": 126,
      "type": "SCALAR"
    },
    {
      "bufferView": 2,
      "byteOffset": 1152,
      "componentType": 5126,
      "count": 2216,
      "max": [
        164.88363647460938,
        214.0450897216797,
        239.495849609375
      ],
      "min": [
        -164.8836212158203,
        -223.2196044921875,
        -243.84947204589844
      ],
      "type": "VEC3"
    },
    {
      "bufferView": 2,
      "byteOffset": 27744,
      "componentType": 5126,
      "count": 2216,
      "max": [
        0.9995260834693909,
        0.9618036150932312,
        0.9963436722755432
      ],
      "min": [
        -0.9995260834693909,
        -0.9994304180145264,
        -1.0
      ],
      "type": "VEC3"
    },
    {
      "bufferView": 1,
      "byteOffset": 384,
      "componentType": 5126,
      "count": 2216,
      "max": [
        0.0,
        0.0
      ],
      "min": [
        0.0,
        0.0
      ],
      "type": "VEC2"
    },
    {
      "bufferView": 0,
      "byteOffset": 504,
      "componentType": 5125,
      "count": 9888,
      "type": "SCALAR"
    },
    {
      "bufferView": 2,
      "byteOffset": 54336,
      "componentType": 5126,
      "count": 3226,
      "max": [
        153.73085021972656,
        225.65948486328125,
        235.23907470703125
      ],
      "min": [
        -153.73085021972656,
        64.12638092041016,
        -175.40176391601563
      ],
      "type": "VEC3"
    },
    {
      "bufferView": 2,
      "byteOffset": 93048,
      "componentType": 5126,
      "count": 3226,
      "max": [
        0.9711403250694275,
        0.9999724626541138,
        1.0
      ],
      "min": [
        -0.9711399078369141,
        -0.9182656407356262,
        -1.0
      ],
      "type": "VEC3"
    },
    {
      "bufferView": 1,
      "byteOffset": 18112,
      "componentType": 5126,
      "count": 3226,
      "max": [
        1.0001147985458374,
        1.0000003576278687
      ],
      "min": [
        0.0,
        0.0
      ],
      "type": "VEC2"
    },
    {
      "bufferView": 0,
      "byteOffset": 40056,
      "componentType": 5125,
      "count": 11556,
      "type": "SCALAR"
    }
  ],
  "asset": {
    "extras": {
      "author": "JokeVex (https://sketchfab.com/JokeVex)",
      "license": "CC-BY-4.0 (http://creativecommons.org/licenses/by/4.0/)",
      "source": "https://sketchfab.com/3d-models/iron-man-armored-adventures-mk2-helmet-001a49d097774e689b12f7f5146e77a0",
      "title": "Iron Man Armored Adventures MK2 Helmet"
    },
    "generator": "Sketchfab-16.39.0",
    "version": "2.0"
  },
  "bufferViews": [
    {
      "buffer": 0,
      "byteLength": 86280,
      "name": "floatBufferViews",
      "target": 34963
    },
    {
      "buffer": 0,
      "byteLength": 43920,
      "byteOffset": 86280,
      "byteStride": 8,
      "name": "floatBufferViews",
      "target": 34962
    },
    {
      "buffer": 0,
      "byteLength": 131760,
      "byteOffset": 130200,
      "byteStride": 12,
      "name": "floatBufferViews",
      "target": 34962
    }
  ],
  "buffers": [
    {
      "byteLength": 261960,
      "uri": "scene.bin"
    }
  ],
  "extensionsUsed": [
    "KHR_materials_emissive_strength",
    "KHR_materials_specular",
    "KHR_materials_clearcoat"
  ],
  "materials": [
    {
      "doubleSided": true,
      "emissiveFactor": [
        0.0,
        0.008936282472943615,
        0.17534715041373466
      ],
      "extensions": {
        "KHR_materials_emissive_strength": {
          "emissiveStrength": 10.0
        },
        "KHR_materials_specular": {
          "specularColorFactor": [
            1.0,
            1.0,
            1.0
          ],
          "specularFactor": 1.0
        }
      },
      "name": "Material",
      "pbrMetallicRoughness": {
        "metallicFactor": 0.0,
        "roughnessFactor": 0.223606797749979
      }
    },
    {
      "doubleSided": true,
      "extensions": {
        "KHR_materials_specular": {
          "specularColorFactor": [
            1.0,
            1.0,
            1.0
          ],
          "specularFactor": 0.9249551998634662
        }
      },
      "name": "Material.002",
      "pbrMetallicRoughness": {
        "baseColorFactor": [
          0.4626759999999999,
          0.010772100000000003,
          0.013431100000000041,
          1.0
        ],
        "metallicFactor": 0.3154295327376236,
        "roughnessFactor": 0.18133388596993819
      }
    },
    {
      "doubleSided": true,
      "extensions": {
        "KHR_materials_clearcoat": {
          "clearcoatFactor": 0.278857992710073,
          "clearcoatRoughnessFactor": 0.8700978898221403
        },
        "KHR_materials_specular": {
          "specularColorFactor": [
            1.0,
            1.0,
            1.0
          ],
          "specularFactor": 0.5775255696017358
        }
      },
      "name": "Material.001",
      "pbrMetallicRoughness": {
        "baseColorFactor": [
          0.8282921100667165,
          0.5666954179314122,
          0.12661159453710927,
          1.0
        ],
        "metallicFactor": 0.4921919762041179,
        "roughnessFactor": 0.1630481159561629
      }
    }
  ],
  "meshes": [
    {
      "name": "Plane.008_Material_0",
      "primitives": [
        {
          "attributes": {
            "NORMAL": 1,
            "POSITION": 0,
            "TEXCOORD_0": 2
          },
          "indices": 3,
          "material": 0,
          "mode": 4
        }
      ]
    },
    {
      "name": "Plane.010_Material.002_0",
      "primitives": [
        {
          "attributes": {
            "NORMAL": 5,
            "POSITION": 4,
            "TEXCOORD_0": 6
          },
          "indices": 7,
          "material": 1,
          "mode": 4
        }
      ]
    },
    {
      "name": "Plane.016_Material.001_0",
      "primitives": [
        {
          "attributes": {
            "NORMAL": 9,
            "POSITION": 8,
            "TEXCOORD_0": 10
          },
          "indices": 11,
          "material": 2,
          "mode": 4
        }
      ]
    }
  ],
  "nodes": [
    {
      "children": [
        1
      ],
      "matrix": [
        1.0,
        0.0,
        0.0,
        0.0,
        0.0,
        2.220446049250313e-16,
        -1.0,
        0.0,
        0.0,
        1.0,
        2.220446049250313e-16,
        0.0,
        0.0,
        0.0,
        0.0,
        1.0
      ],
      "name": "Sketchfab_model"
    },
    {
      "children": [
        2
      ],
      "matrix": [
        0.009999999776482582,
        0.0,
        0.0,
        0.0,
        0.0,
        0.0,
        0.009999999776482582,
        0.0,
        0.0,
        -0.009999999776482582,
        0.0,
        0.0,
        0.0,
        0.0,
        0.0,
        1.0
      ],
      "name": "59d4cd356a0a4b5592ade1c84c48a2b5.fbx"
    },
    {
      "children": [
        3,
        5,
        7
      ],
      "name": "RootNode"
    },
    {
      "children": [
        4
      ],
      "matrix": [
        2.261735200881958,
        0.0,
        0.0,
        0.0,
        0.0,
        -3.684834355321089e-07,
        2.2617352008819283,
        0.0,
        0.0,
        -2.2617352008819283,
        -3.684834355321089e-07,
        0.0,
        0.0,
        670.9736328125,
        0.0,
        1.0
      ],
      "name": "Plane.008"
    },
    {
      "mesh": 0,
      "name": "Plane.008_Material_0"
    },
    {
      "children": [
        6
      ],
      "matrix": [
        2.261735200881958,
        0.0,
        0.0,
        0.0,
        0.0,
        -3.684834355321089e-07,
        2.2617352008819283,
        0.0,
        0.0,
        -2.2617352008819283,
        -3.684834355321089e-07,
        0.0,
        0.0,
        670.9736328125,
        0.0,
        1.0
      ],
      "name": "Plane.010"
    },
    {
      "mesh": 1,
      "name": "Plane.010_Material.002_0"
    },
    {
      "children": [
        8
      ],
      "matrix": [
        2.261735200881958,
        0.0,
        0.0,
        0.0,
        0.0,
        -3.684834355321089e-07,
        2.2617352008819283,
        0.0,
        0.0,
        -2.2617352008819283,
        -3.684834355321089e-07,
        0.0,
        0.0,
        670.9736328125,
        0.0,
        1.0
      ],
      "name": "Plane.016"
    },
    {
      "mesh": 2,
      "name": "Plane.016_Material.001_0"
    }
  ],
  "scene": 0,
  "scenes": [
    {
      "name": "Sketchfab_Scene",
      "nodes": [
        0
      ]
    }
  ]
}
